<?xml version="1.0" standalone="no"?>
<!DOCTYPE svg PUBLIC "-//W3C//DTD SVG 20010904//EN"
 "http://www.w3.org/TR/2001/REC-SVG-20010904/DTD/svg10.dtd">
<svg version="1.0" xmlns="http://www.w3.org/2000/svg"
 width="500.000000pt" height="500.000000pt" viewBox="0 0 500.000000 500.000000"
 preserveAspectRatio="xMidYMid meet">

<g transform="translate(0.000000,500.000000) scale(0.100000,-0.100000)"
fill="#000000" stroke="none">
<path d="M2350 3844 c-97 -10 -244 -48 -370 -96 -19 -7 -71 -32 -114 -56 -370
-201 -608 -526 -697 -952 -18 -86 -18 -393 0 -480 89 -432 359 -788 736 -970
113 -54 189 -81 320 -112 130 -31 420 -31 550 0 186 44 328 104 474 201 292
193 486 480 573 846 18 75 21 121 21 275 0 154 -3 200 -21 275 -47 199 -120
363 -225 510 -201 280 -487 465 -837 542 -65 14 -326 25 -410 17z m415 -45
c138 -28 150 -35 149 -86 -1 -43 -27 -86 -56 -91 -19 -3 -33 14 -18 23 16 10
12 35 -5 35 -9 0 -18 -7 -21 -15 -5 -11 -11 -12 -25 -4 -33 17 -20 3 21 -25
23 -15 45 -24 50 -21 20 12 9 -12 -15 -35 -14 -13 -24 -29 -21 -36 5 -14 -17
-12 -79 4 -22 6 -70 14 -107 17 -38 4 -68 12 -68 17 0 5 10 7 23 3 20 -5 20
-5 -3 9 -22 13 -25 13 -28 0 -3 -10 -18 -14 -53 -14 -28 0 -82 -5 -120 -11
-39 -6 -72 -9 -74 -7 -8 8 33 147 54 181 18 28 28 36 42 32 11 -4 19 -2 19 3
0 5 -14 12 -30 14 -22 3 -29 1 -26 -8 3 -7 -4 -23 -14 -36 -15 -18 -19 -19
-20 -7 0 9 -10 29 -22 44 l-22 28 32 -6 c20 -4 31 -3 27 3 -16 25 264 18 410
-11z m-462 -20 c22 -31 23 -70 3 -176 -5 -26 -15 -44 -25 -47 -9 -3 -48 -14
-88 -26 -39 -11 -75 -20 -80 -19 -24 4 -43 -2 -37 -13 4 -6 3 -8 -4 -4 -6 3
-23 -5 -38 -19 -15 -14 -31 -25 -36 -25 -5 0 -41 -21 -80 -46 -73 -47 -87 -47
-88 -1 0 10 -5 27 -11 38 -12 24 -16 120 -5 138 5 7 15 10 23 7 8 -3 11 -2 8
4 -3 5 3 14 14 20 12 6 26 20 32 33 9 16 0 11 -29 -15 -23 -21 -49 -38 -57
-38 -12 0 -14 -8 -9 -42 l7 -43 -24 22 c-13 12 -35 26 -49 32 -17 7 -20 10 -7
10 9 1 17 5 17 11 0 25 208 135 340 180 69 23 179 49 194 46 6 -1 18 -14 29
-27z m659 -46 c22 -20 22 -27 2 -47 -24 -24 -29 -20 -29 24 0 45 1 47 27 23z
m143 -55 c7 -7 3 -9 -12 -5 -13 3 -25 1 -28 -4 -3 -5 13 -8 37 -7 37 2 55 -6
128 -55 47 -31 116 -85 154 -120 l70 -63 -22 -36 c-26 -42 -37 -48 -100 -49
-45 -2 -45 -2 -12 -8 l35 -6 -54 -22 c-51 -22 -54 -22 -76 -5 -70 55 -147 111
-157 115 -7 2 -10 8 -5 12 4 5 13 3 19 -3 7 -7 17 -12 23 -12 5 0 3 6 -6 13
-8 7 -21 21 -27 32 -9 16 -11 17 -12 3 0 -26 -21 -27 -65 -3 -22 12 -62 30
-90 40 -79 29 -81 38 -27 105 26 32 54 59 63 59 9 1 22 8 29 16 7 8 19 15 28
15 13 0 13 2 -1 18 -10 10 -17 21 -17 25 0 8 112 -41 125 -55z m-265 -18 c0
-5 -4 -10 -10 -10 -5 0 -10 5 -10 10 0 6 5 10 10 10 6 0 10 -4 10 -10z m-179
-114 c8 -3 40 -10 71 -16 55 -11 57 -13 47 -33 -9 -21 -9 -21 5 -4 17 21 27
20 126 -20 76 -31 201 -106 265 -159 34 -29 42 -41 33 -51 -8 -10 -6 -13 13
-11 19 2 24 -1 22 -19 -1 -11 4 -27 12 -33 8 -7 15 -21 15 -31 0 -10 5 -21 10
-24 6 -3 10 4 10 17 0 13 -9 29 -20 36 -11 7 -20 17 -20 22 0 56 166 -172 218
-299 28 -68 28 -69 -5 -74 -27 -4 -27 -4 3 -6 34 -1 54 -28 29 -37 -8 -4 -15
-11 -15 -16 0 -6 6 -6 14 1 17 15 24 5 32 -45 3 -20 10 -48 15 -61 11 -29 12
-323 2 -323 -5 0 -9 -21 -10 -46 -4 -89 -58 -240 -126 -354 -49 -82 -46 -79
-63 -56 -8 11 -14 15 -14 10 0 -6 6 -16 13 -23 10 -10 9 -15 -5 -25 -10 -7
-16 -15 -13 -18 7 -7 -113 -130 -176 -180 -50 -40 -158 -108 -172 -108 -3 0
-8 10 -10 23 -4 19 -4 19 -6 -5 -1 -36 -14 -42 -36 -18 -13 14 -22 17 -31 10
-6 -6 -23 -8 -37 -5 -14 4 -28 2 -31 -4 -5 -7 5 -11 28 -11 19 0 38 5 41 10 7
11 35 -5 35 -19 0 -12 -175 -73 -184 -64 -2 2 -25 -3 -50 -11 -58 -20 -216
-22 -217 -3 0 9 -2 9 -6 0 -7 -19 -33 -16 -34 5 -1 16 -2 16 -6 0 -5 -20 -63
-24 -123 -9 -19 5 -48 12 -64 16 -17 3 -25 9 -19 13 6 4 -8 7 -30 8 -45 1
-207 69 -207 87 0 5 8 16 18 24 11 10 7 9 -11 -2 -27 -15 -30 -15 -65 5 -63
38 -152 114 -147 128 2 7 -4 12 -14 12 -18 0 -91 77 -139 147 -27 39 -27 43 1
44 21 2 21 2 -2 6 -30 6 -45 20 -70 69 -40 78 -62 139 -52 142 6 2 1 16 -10
31 -20 27 -49 147 -49 203 0 22 4 25 23 22 l22 -5 -22 10 c-25 11 -30 27 -10
34 6 3 4 6 -7 6 -18 1 -19 7 -13 97 4 53 11 102 15 108 5 6 10 28 10 48 1 34
21 105 51 182 l12 29 27 -24 27 -24 -22 26 c-30 34 -29 39 10 40 30 2 30 2 5
6 -16 2 -28 8 -28 13 0 15 91 160 100 160 4 0 20 20 34 43 14 24 53 70 87 101
l62 58 13 -24 c13 -22 13 -21 7 11 -5 30 -4 33 11 28 10 -4 15 -3 11 3 -13 21
177 125 315 171 70 23 97 24 103 2 4 -14 5 -12 6 5 1 26 18 29 38 5 13 -17 14
-16 8 4 -5 19 -1 22 32 26 44 6 263 0 284 -7z m-914 -15 c35 -22 48 -61 39
-113 l-6 -33 12 29 13 28 13 -48 13 -48 -82 -75 c-45 -42 -93 -81 -108 -88
-18 -8 -21 -12 -8 -13 23 0 22 -3 -17 -57 -18 -27 -46 -70 -61 -98 -15 -27
-29 -52 -31 -54 -9 -10 -104 94 -104 114 0 11 -7 29 -15 39 -17 23 -11 36 18
37 18 1 19 2 4 6 -10 3 -27 -3 -37 -12 -18 -16 -18 -17 1 -36 10 -10 19 -26
19 -34 0 -13 -4 -14 -21 -4 -12 6 -34 8 -50 5 -24 -5 -27 -3 -24 16 5 26 61
120 118 198 54 75 242 260 264 260 10 0 32 -9 50 -19z m1733 -139 c0 -4 23
-32 51 -62 54 -57 50 -83 -4 -34 l-32 29 30 -33 c16 -18 39 -35 51 -38 41 -11
184 -288 184 -359 0 -41 -45 -57 -146 -52 -47 3 -89 9 -94 13 -4 5 -18 34 -31
64 -13 30 -33 72 -46 92 -13 21 -23 42 -23 48 0 18 17 11 29 -12 7 -14 9 -16
6 -5 -3 10 -5 25 -5 33 0 11 -6 13 -19 9 -15 -4 -35 14 -94 87 -84 104 -85 97
15 137 32 12 66 20 77 16 27 -8 68 4 68 20 0 11 -4 11 -21 0 -12 -7 -29 -10
-40 -6 -14 6 -16 10 -7 15 7 4 16 19 22 33 8 21 29 25 29 5z m-2027 -393 c65
-59 66 -62 53 -87 -20 -40 -68 -202 -71 -242 -1 -19 -6 -78 -10 -132 l-8 -96
-44 19 c-25 10 -51 19 -59 19 -7 0 -19 9 -26 20 -15 23 -33 27 -24 5 3 -9 0
-15 -8 -15 -7 0 -26 -10 -41 -21 -39 -31 -46 -13 -39 101 9 148 31 258 81 395
29 81 43 95 93 95 30 0 47 -10 103 -61z m2340 -206 c9 -38 17 -79 17 -93 -1
-23 -2 -23 -21 10 -15 26 -18 29 -13 10 4 -14 15 -35 24 -47 25 -32 33 -158
20 -289 -7 -60 -17 -115 -22 -121 -15 -19 -80 -16 -108 4 -14 10 -30 18 -36
19 -6 1 -29 14 -51 28 l-39 26 8 83 c5 45 6 96 3 114 -3 17 -1 34 5 38 6 4 11
-5 11 -22 l2 -28 4 28 c3 18 -1 33 -11 40 -8 7 -22 48 -30 97 -9 47 -19 98
-22 114 l-7 29 75 -6 c71 -6 158 -38 158 -59 0 -15 -35 -63 -48 -66 -7 -1 -22
2 -32 8 -11 6 -20 7 -20 2 0 -7 56 -32 73 -32 4 0 7 8 7 18 0 10 6 26 13 37 8
11 17 36 20 55 5 22 4 30 -2 21 -6 -9 -18 -11 -35 -7 -27 7 -36 26 -12 26 7 0
19 7 26 15 7 8 15 15 19 15 4 0 14 -30 24 -67z m-2463 -336 c8 -2 30 -7 47
-12 18 -4 37 -12 42 -19 5 -6 14 -47 20 -91 13 -97 49 -212 96 -309 19 -40 35
-75 35 -79 0 -4 -15 -7 -34 -7 -19 0 -47 -5 -62 -10 -19 -8 -30 -8 -38 0 -5 5
-24 10 -42 10 -18 0 -34 6 -36 12 -3 7 -5 -8 -5 -32 0 -25 2 -35 4 -23 4 23
35 39 53 28 6 -4 1 -18 -15 -37 -14 -16 -25 -34 -25 -39 0 -5 -6 -9 -13 -9
-14 0 -78 130 -113 233 -32 93 -64 246 -64 306 0 40 4 49 33 69 31 22 53 24
117 9z m2386 -253 c29 -42 29 -43 7 -60 -17 -12 -16 -13 5 -11 13 1 22 8 22
18 0 9 9 24 20 34 27 24 26 11 -11 -98 -56 -167 -181 -388 -224 -396 -45 -8
-111 55 -105 100 2 8 1 25 0 39 -2 18 -5 14 -9 -15 l-6 -39 -23 45 -23 45 49
80 c27 43 52 89 56 102 4 12 12 22 19 22 8 0 8 -3 -1 -12 -18 -18 -15 -33 4
-17 10 8 13 21 9 37 -3 14 4 56 19 101 13 42 27 93 31 113 l6 37 66 -45 c36
-25 76 -61 89 -80z m74 15 c-16 -29 -38 -34 -62 -13 -20 19 -20 19 18 25 22 3
43 7 47 8 4 0 3 -8 -3 -20z m-2167 -341 c20 -29 55 -73 77 -98 33 -36 40 -50
35 -70 -6 -23 -5 -23 7 -7 13 17 17 15 74 -30 33 -26 75 -59 93 -73 l34 -26
-49 -35 c-27 -20 -63 -39 -79 -44 l-30 -8 25 -6 c17 -5 21 -9 12 -15 -6 -4
-12 -22 -12 -41 0 -19 -5 -37 -10 -40 -33 -20 -307 232 -392 362 -47 70 -57
90 -39 79 5 -3 14 7 19 23 12 34 37 49 107 66 84 21 88 20 128 -37z m1747 -38
c0 -5 14 -33 32 -62 17 -29 31 -63 30 -75 -1 -12 3 -25 8 -28 6 -4 7 1 3 11
-5 14 -3 16 13 9 10 -4 31 -10 47 -13 30 -5 32 -8 15 -25 -15 -13 -47 -16 -64
-5 -7 5 -11 1 -10 -10 1 -12 -5 -16 -24 -14 -19 2 -22 0 -13 -9 9 -9 20 -8 48
5 20 10 40 15 43 11 10 -11 -157 -165 -240 -222 -40 -27 -100 -64 -132 -82
-53 -29 -62 -31 -88 -20 -32 13 -58 55 -58 91 0 30 10 44 38 50 18 5 22 2 22
-15 0 -18 -2 -20 -11 -7 -7 10 -9 11 -7 2 6 -23 23 -18 26 6 3 21 8 23 37 20
19 -2 31 0 28 5 -9 14 -117 4 -131 -13 -10 -12 -12 -6 -10 34 l3 49 78 48 c43
27 82 49 87 49 20 0 59 24 54 32 -3 5 24 39 61 76 37 37 74 77 83 90 15 23 32
29 32 12z m-1267 -340 c2 0 22 -8 43 -17 22 -9 46 -18 54 -20 155 -25 230 -39
235 -44 18 -19 -93 -178 -119 -171 -5 2 -3 -4 4 -14 13 -15 15 -14 23 9 11 34
37 44 37 14 0 -12 7 -32 15 -44 10 -14 12 -24 5 -28 -25 -15 -197 17 -330 61
-89 30 -235 101 -252 122 -7 9 -8 13 -3 10 6 -4 10 9 10 32 0 29 8 47 29 69
16 17 34 28 39 24 6 -3 7 -1 3 5 -4 6 9 22 30 36 l36 24 68 -34 c38 -19 70
-34 73 -34z m857 -47 c0 -39 -7 -86 -17 -111 -15 -39 -19 -43 -42 -37 -15 3
-21 2 -14 -3 9 -5 2 -14 -22 -26 -19 -11 -35 -23 -35 -27 0 -5 16 3 36 16 20
14 49 25 64 25 23 0 27 4 23 20 -3 11 -2 27 1 36 5 13 12 10 39 -18 22 -22 29
-36 22 -44 -30 -32 -241 -87 -397 -104 -161 -17 -173 -15 -197 24 -28 45 -26
72 9 150 27 61 32 66 62 67 18 1 44 3 58 5 66 9 162 5 178 -8 15 -12 16 -11 3
5 -8 9 -12 19 -10 20 9 5 215 74 227 76 8 1 12 -18 12 -66z"/>
<path d="M2460 3800 c-21 -7 -21 -8 -5 -9 11 0 27 4 35 9 18 11 5 11 -30 0z"/>
<path d="M2520 3750 c-13 -9 -13 -10 0 -10 8 0 22 5 30 10 13 9 13 10 0 10 -8
0 -22 -5 -30 -10z"/>
<path d="M2460 3726 c0 -14 -4 -28 -10 -31 -5 -3 -10 -12 -10 -18 1 -12 26 17
33 37 2 7 10 6 22 -4 18 -15 18 -14 1 13 -23 34 -36 35 -36 3z"/>
<path d="M2730 3714 c-11 -12 -11 -18 2 -30 14 -14 15 -13 11 9 -4 19 0 26 14
30 14 4 15 5 2 6 -9 0 -22 -6 -29 -15z"/>
<path d="M2510 3677 c0 -7 9 -13 20 -14 11 -1 20 0 20 2 0 2 -9 9 -20 15 -15
8 -20 8 -20 -3z"/>
<path d="M2600 3670 c-9 -6 -10 -10 -3 -10 6 0 15 5 18 10 8 12 4 12 -15 0z"/>
<path d="M2660 3645 c-22 -27 -4 -45 44 -45 24 0 51 -3 60 -6 9 -3 16 -2 16 4
0 5 -8 12 -17 16 -10 3 -24 9 -32 12 -9 4 -11 2 -7 -5 5 -7 -5 -11 -28 -11
-37 0 -47 15 -24 38 7 7 9 12 6 12 -3 0 -11 -7 -18 -15z"/>
<path d="M2496 3635 c-3 -8 -1 -15 3 -15 5 0 11 7 15 15 3 8 1 15 -3 15 -5 0
-11 -7 -15 -15z"/>
<path d="M2798 3603 c7 -3 16 -2 19 1 4 3 -2 6 -13 5 -11 0 -14 -3 -6 -6z"/>
<path d="M2160 3700 c-8 -5 -12 -11 -10 -14 3 -2 14 2 24 10 22 15 10 19 -14
4z"/>
<path d="M2241 3681 c-13 -24 -58 -36 -77 -20 -9 7 -14 8 -14 1 0 -14 36 -25
51 -17 5 4 26 4 45 0 31 -5 34 -8 22 -23 -9 -13 -7 -12 10 2 23 20 27 27 15
25 -20 -3 -34 2 -28 11 3 6 -1 7 -9 4 -20 -8 -20 0 0 20 8 9 11 16 5 16 -6 0
-15 -8 -20 -19z"/>
<path d="M1940 3615 c-13 -14 -29 -25 -37 -25 -15 0 -17 -16 -3 -25 6 -4 8
-10 6 -14 -3 -4 -1 -13 4 -21 7 -12 9 -11 9 5 -1 38 8 57 32 75 13 10 21 21
18 24 -3 3 -16 -5 -29 -19z"/>
<path d="M2039 3574 c-23 -25 -23 -26 -2 -15 23 12 38 29 31 37 -3 2 -15 -8
-29 -22z"/>
<path d="M2178 3593 c12 -2 32 -2 45 0 12 2 2 4 -23 4 -25 0 -35 -2 -22 -4z"/>
<path d="M2114 3570 c1 -8 10 -16 21 -17 15 -1 15 0 3 3 -9 3 -19 11 -21 17
-2 7 -3 5 -3 -3z"/>
<path d="M1958 3550 c9 -11 20 -30 24 -43 6 -18 7 -17 4 6 -3 21 0 27 10 23 8
-3 14 1 14 10 0 11 -6 13 -19 9 -11 -3 -22 -1 -26 5 -3 5 -10 10 -15 10 -6 0
-2 -9 8 -20z"/>
<path d="M3015 3680 c-8 -13 9 -20 24 -11 10 6 9 10 -3 14 -8 3 -18 2 -21 -3z"/>
<path d="M3031 3632 c4 -25 -4 -42 -22 -47 -11 -4 -18 -9 -16 -12 3 -2 22 5
43 16 27 15 41 17 50 10 7 -6 23 -9 36 -6 21 4 20 4 -4 6 -15 0 -30 6 -33 11
-4 6 -11 8 -16 5 -5 -4 -9 -2 -9 3 0 6 -7 12 -15 16 -8 3 -14 2 -14 -2z"/>
<path d="M3060 3560 c0 -6 -11 -22 -25 -35 -13 -14 -20 -25 -15 -25 5 0 15 7
24 15 19 19 26 19 26 -2 0 -9 3 -14 6 -10 4 3 20 -1 36 -9 22 -11 33 -13 41
-5 8 8 4 11 -15 11 -32 0 -79 36 -71 55 3 8 2 15 -1 15 -3 0 -6 -5 -6 -10z"/>
<path d="M3257 3474 c-4 -4 -7 -17 -6 -28 0 -20 1 -20 9 2 10 23 34 30 43 12
3 -6 4 -5 3 2 -3 14 -38 23 -49 12z"/>
<path d="M3153 3435 c-6 -17 23 -55 41 -54 6 0 1 7 -11 16 -34 23 -30 46 6 41
17 -2 28 -1 25 4 -9 14 -54 9 -61 -7z"/>
<path d="M3281 3414 c0 -11 3 -14 6 -6 3 7 2 16 -1 19 -3 4 -6 -2 -5 -13z"/>
<path d="M3220 3393 c0 -16 36 -53 52 -53 7 0 3 7 -9 15 -13 9 -27 23 -32 33
-6 10 -11 12 -11 5z"/>
<path d="M3303 3394 c-7 -3 -9 -12 -6 -20 6 -17 34 -19 31 -1 -2 6 3 11 10 9
8 -1 11 2 7 8 -6 10 -22 12 -42 4z"/>
<path d="M2370 3520 c-12 -7 -11 -9 5 -8 11 0 28 -3 39 -7 14 -6 18 -5 14 6
-6 17 -38 23 -58 9z"/>
<path d="M2548 3523 c-10 -2 -18 -12 -18 -21 0 -13 2 -14 9 -3 5 8 16 11 30 6
16 -5 20 -3 15 9 -3 9 -9 15 -13 15 -3 -1 -14 -3 -23 -6z"/>
<path d="M2831 3464 c0 -11 3 -14 6 -6 3 7 2 16 -1 19 -3 4 -6 -2 -5 -13z"/>
<path d="M2870 3450 c19 -19 40 -26 40 -14 0 10 -33 33 -47 34 -8 0 -5 -8 7
-20z"/>
<path d="M2408 3437 c-3 -19 -2 -25 4 -19 6 6 8 18 6 28 -3 14 -5 12 -10 -9z"/>
<path d="M2085 3432 c-21 -18 -25 -35 -12 -48 4 -4 7 2 7 14 0 24 15 30 23 10
4 -10 6 -9 6 1 1 11 4 11 16 1 13 -11 14 -10 9 4 -4 10 -13 15 -21 11 -11 -3
-13 -1 -9 10 7 19 6 18 -19 -3z"/>
<path d="M2264 3428 l-19 -23 23 19 c21 18 27 26 19 26 -2 0 -12 -10 -23 -22z"/>
<path d="M2682 3438 c-7 -7 -12 -20 -12 -30 0 -13 7 -18 28 -17 23 2 24 2 5 6
-25 5 -30 22 -11 41 7 7 10 12 7 12 -3 0 -10 -5 -17 -12z"/>
<path d="M2730 3440 c-9 -6 -10 -10 -3 -10 6 0 15 5 18 10 8 12 4 12 -15 0z"/>
<path d="M2234 3395 c1 -29 35 -25 53 5 15 25 15 25 -2 3 -21 -27 -42 -30 -48
-5 -3 13 -4 12 -3 -3z"/>
<path d="M2761 3394 c0 -11 3 -14 6 -6 3 7 2 16 -1 19 -3 4 -6 -2 -5 -13z"/>
<path d="M2857 3391 c-4 -18 -10 -22 -24 -17 -14 6 -16 5 -5 -5 10 -11 15 -10
28 3 9 9 14 22 12 29 -3 8 -7 4 -11 -10z"/>
<path d="M2348 3377 c-3 -19 -2 -25 4 -19 6 6 8 18 6 28 -3 14 -5 12 -10 -9z"/>
<path d="M2781 3378 c0 -15 -9 -32 -18 -37 -10 -6 -13 -11 -7 -11 19 0 36 28
31 52 -4 21 -4 20 -6 -4z"/>
<path d="M2990 3380 c-8 -5 -12 -12 -9 -15 4 -3 12 1 19 10 14 17 11 19 -10 5z"/>
<path d="M3020 3365 c0 -8 4 -15 10 -15 5 0 7 -8 4 -17 -5 -16 -5 -17 5 -1 12
17 5 48 -10 48 -5 0 -9 -7 -9 -15z"/>
<path d="M1944 3360 c-36 -14 -37 -28 -2 -21 17 4 33 12 36 19 4 14 -4 14 -34
2z"/>
<path d="M1968 3263 c6 -2 18 -2 25 0 6 3 1 5 -13 5 -14 0 -19 -2 -12 -5z"/>
<path d="M1866 3225 c-3 -9 -6 -24 -5 -33 0 -9 5 -4 10 12 9 32 6 48 -5 21z"/>
<path d="M1948 3224 c28 -20 30 -48 2 -41 -11 3 -18 1 -14 -4 10 -17 44 -10
44 9 0 19 -29 52 -46 52 -4 0 2 -7 14 -16z"/>
<path d="M3073 3226 c1 -11 9 -21 17 -23 10 -3 11 -2 4 4 -6 4 -14 15 -17 23
-5 11 -6 9 -4 -4z"/>
<path d="M3127 3229 c7 -7 15 -10 18 -7 3 3 -2 9 -12 12 -14 6 -15 5 -6 -5z"/>
<path d="M1891 3188 c-1 -32 -24 -37 -41 -10 -7 10 -10 11 -7 3 2 -8 11 -19
20 -25 22 -14 40 4 34 35 -4 22 -4 22 -6 -3z"/>
<path d="M3197 3153 c-9 -9 -9 -41 1 -46 4 -3 7 8 7 24 0 16 0 29 -1 29 0 0
-4 -3 -7 -7z"/>
<path d="M1701 3120 c-7 -21 -6 -30 4 -33 9 -4 11 1 8 14 -4 15 1 20 26 25 35
7 34 15 -3 19 -19 3 -27 -3 -35 -25z"/>
<path d="M3130 3134 c-17 -9 -20 -14 -9 -14 9 0 22 7 29 15 15 18 13 18 -20
-1z"/>
<path d="M3324 3049 c-3 -6 2 -9 12 -7 13 2 19 -3 18 -14 -1 -10 2 -15 7 -12
5 3 9 0 9 -5 0 -6 -7 -11 -16 -11 -8 0 -12 -5 -9 -10 9 -15 37 9 31 27 -3 7
-1 13 4 13 5 0 7 6 4 13 -6 16 -51 21 -60 6z"/>
<path d="M1640 3011 c0 -7 -4 -10 -9 -7 -5 3 -14 -1 -21 -9 -10 -12 -10 -15 3
-15 17 0 43 28 33 37 -3 3 -6 1 -6 -6z"/>
<path d="M2842 2999 c-24 -4 -83 -22 -132 -39 -49 -16 -108 -30 -131 -30 -40
0 -41 -1 -33 -27 5 -16 9 -54 9 -86 0 -31 2 -57 3 -57 2 0 16 8 30 18 50 34
82 44 88 27 3 -8 -20 -76 -51 -152 -157 -384 -197 -489 -200 -537 -4 -43 -3
-46 4 -16 8 34 223 551 282 677 16 34 29 66 29 72 0 5 7 11 15 15 20 7 19 -3
-9 -71 -13 -32 -36 -89 -51 -128 -15 -38 -31 -79 -36 -90 -5 -11 -40 -101 -79
-200 -39 -99 -82 -206 -96 -238 -37 -90 -30 -111 41 -119 25 -3 30 1 36 27 4
17 19 62 34 100 26 67 57 148 107 282 13 35 29 63 36 63 22 0 26 13 -120 -345
-32 -79 -38 -106 -27 -126 5 -11 19 -19 30 -19 17 0 18 3 8 21 -6 12 -9 36 -6
53 6 38 139 361 150 364 4 1 16 2 26 2 18 0 19 -11 23 -157 7 -231 28 -269
152 -267 92 1 152 28 228 104 63 63 80 102 55 127 -14 15 -18 13 -43 -16 -49
-59 -137 -89 -164 -57 -11 14 -61 193 -74 267 -6 36 -6 37 48 64 63 32 173
129 200 176 l19 34 -34 -31 c-46 -43 -121 -95 -127 -89 -3 2 9 18 25 35 99
102 111 223 29 292 -21 17 -20 18 14 11 19 -3 51 -15 70 -26 32 -18 33 -18 20
0 -37 46 -85 69 -188 89 -81 15 -144 16 -210 3z m201 -93 c48 -44 44 -118 -13
-239 -30 -63 -64 -90 -110 -84 -19 2 -60 -2 -90 -9 -30 -7 -55 -12 -56 -11 -2
3 131 341 139 355 5 7 29 12 56 12 37 0 54 -6 74 -24z"/>
<path d="M2230 2989 c-19 -6 -49 -17 -67 -25 -40 -18 -43 -18 -43 6 0 27 -14
25 -51 -8 -23 -21 -32 -39 -36 -72 -11 -97 41 -193 145 -268 91 -66 151 -121
178 -164 34 -53 30 -69 -5 -22 -36 49 -58 69 -151 134 -89 63 -165 143 -201
210 l-25 50 0 -113 c1 -157 18 -186 176 -310 68 -53 94 -102 85 -157 -14 -83
-109 -167 -200 -178 -57 -6 -148 36 -170 78 -8 16 -15 31 -15 33 0 3 18 7 39
11 69 11 132 99 117 162 -26 100 -144 76 -200 -41 -76 -162 24 -315 207 -315
52 0 166 25 181 41 17 15 49 11 42 -6 -10 -27 34 -17 64 15 28 30 50 96 50
147 -1 71 -63 156 -178 240 -66 50 -132 122 -132 145 0 6 24 -14 53 -44 28
-29 88 -80 131 -113 88 -66 147 -138 169 -205 l15 -44 6 49 c17 138 18 165 7
197 -15 46 -71 110 -129 150 -96 64 -142 125 -142 188 0 89 89 170 188 170 56
0 115 -33 120 -66 2 -17 -1 -20 -25 -17 -57 9 -133 -73 -133 -143 0 -78 85
-112 149 -59 65 55 99 182 69 252 -37 84 -165 125 -288 92z"/>
<path d="M1668 2923 c7 -3 16 -2 19 1 4 3 -2 6 -13 5 -11 0 -14 -3 -6 -6z"/>
<path d="M1668 2883 c7 -3 16 -2 19 1 4 3 -2 6 -13 5 -11 0 -14 -3 -6 -6z"/>
<path d="M3335 2880 c-8 -13 2 -28 28 -41 20 -9 20 -9 -2 9 -13 11 -21 24 -17
31 4 6 5 11 2 11 -3 0 -8 -4 -11 -10z"/>
<path d="M1710 2865 c10 -12 8 -16 -11 -24 -14 -6 -18 -10 -8 -10 8 -1 20 4
26 10 13 13 6 39 -9 39 -6 0 -5 -6 2 -15z"/>
<path d="M3222 2832 c0 -26 -7 -65 -16 -87 -21 -49 -14 -56 13 -12 22 36 30
130 12 142 -6 3 -10 -15 -9 -43z"/>
<path d="M1652 2800 c0 -14 2 -19 5 -12 2 6 2 18 0 25 -3 6 -5 1 -5 -13z"/>
<path d="M1606 2797 c3 -10 9 -15 12 -12 3 3 0 11 -7 18 -10 9 -11 8 -5 -6z"/>
<path d="M3324 2789 c-7 -12 12 -29 33 -29 6 0 14 4 17 8 3 5 -5 8 -17 8 -13
-1 -21 4 -19 12 3 15 -5 16 -14 1z"/>
<path d="M3490 2740 c-8 -15 -9 -25 -1 -33 7 -7 12 -2 17 17 8 35 -1 44 -16
16z"/>
<path d="M1520 2706 c-18 -18 -11 -34 11 -29 16 4 17 8 7 14 -10 7 -9 9 4 9 9
0 19 4 22 8 7 11 -32 10 -44 -2z"/>
<path d="M3408 2713 c6 -2 18 -2 25 0 6 3 1 5 -13 5 -14 0 -19 -2 -12 -5z"/>
<path d="M1510 2656 c0 -2 7 -7 16 -10 8 -3 12 -2 9 4 -6 10 -25 14 -25 6z"/>
<path d="M3493 2599 c13 -8 17 -18 13 -35 -4 -13 -3 -24 2 -24 5 0 9 6 9 13 0
6 2 17 3 22 6 24 -1 35 -22 35 -21 -1 -22 -1 -5 -11z"/>
<path d="M1491 2534 c-15 -34 -9 -40 14 -14 12 14 15 24 8 31 -6 6 -14 1 -22
-17z"/>
<path d="M1558 2523 c6 -2 18 -2 25 0 6 3 1 5 -13 5 -14 0 -19 -2 -12 -5z"/>
<path d="M1550 2490 c0 -5 5 -10 11 -10 5 0 7 5 4 10 -3 6 -8 10 -11 10 -2 0
-4 -4 -4 -10z"/>
<path d="M3405 2450 c-6 -10 19 -60 30 -60 3 0 -2 11 -11 25 -15 23 -15 25 1
32 12 4 23 0 31 -12 8 -10 14 -14 14 -9 0 27 -51 46 -65 24z"/>
<path d="M1590 2396 c0 -2 8 -10 18 -17 15 -13 16 -12 3 4 -13 16 -21 21 -21
13z"/>
<path d="M3357 2374 c-8 -13 20 -41 30 -30 3 3 1 6 -5 6 -6 0 -12 8 -14 18 -2
11 -6 13 -11 6z"/>
<path d="M3408 2268 c6 -6 18 -8 28 -6 14 3 12 5 -9 10 -19 3 -25 2 -19 -4z"/>
<path d="M3487 2259 c-9 -6 -17 -17 -17 -25 0 -11 5 -10 22 6 24 22 22 34 -5
19z"/>
<path d="M1557 2230 c-7 -11 -17 -17 -22 -12 -4 4 -2 -3 4 -15 6 -13 20 -27
31 -33 25 -13 26 -2 3 16 -16 12 -16 15 -3 24 13 9 13 10 0 11 -10 0 -9 3 4 8
13 5 16 10 9 14 -7 4 -18 -2 -26 -13z"/>
<path d="M3423 2122 c2 -23 -2 -27 -22 -26 -22 1 -23 0 -6 -12 13 -10 20 -10
29 -1 20 20 24 41 10 54 -10 10 -12 7 -11 -15z"/>
<path d="M1666 2091 c-4 -5 3 -7 14 -4 23 6 26 13 6 13 -8 0 -17 -4 -20 -9z"/>
<path d="M1600 2051 c0 -17 4 -31 8 -31 11 0 13 48 2 55 -6 4 -10 -7 -10 -24z"/>
<path d="M1729 2043 c-12 -16 -12 -17 1 -7 8 7 24 14 35 17 19 4 19 5 -1 6
-12 0 -28 -7 -35 -16z"/>
<path d="M3270 2031 c0 -5 9 -7 20 -4 11 3 20 7 20 9 0 2 -9 4 -20 4 -11 0
-20 -4 -20 -9z"/>
<path d="M1750 1986 c0 -2 7 -7 16 -10 8 -3 12 -2 9 4 -6 10 -25 14 -25 6z"/>
<path d="M3190 1976 c0 -8 4 -17 9 -20 5 -4 7 3 4 14 -6 23 -13 26 -13 6z"/>
<path d="M1670 1960 c-9 -6 -10 -10 -3 -10 6 0 15 5 18 10 8 12 4 12 -15 0z"/>
<path d="M1791 1954 c0 -11 3 -14 6 -6 3 7 2 16 -1 19 -3 4 -6 -2 -5 -13z"/>
<path d="M3198 1903 c6 -2 18 -2 25 0 6 3 1 5 -13 5 -14 0 -19 -2 -12 -5z"/>
<path d="M1794 1824 c-8 -30 3 -43 39 -50 21 -3 25 -1 21 11 -5 12 -10 13 -19
5 -17 -14 -38 20 -29 44 3 9 3 16 0 16 -3 0 -9 -12 -12 -26z"/>
<path d="M3264 1840 c-33 -13 -39 -30 -10 -28 14 1 27 10 29 20 3 10 4 18 4
17 -1 0 -12 -4 -23 -9z"/>
<path d="M2066 1763 c7 -4 14 -17 17 -28 5 -16 5 -15 4 4 -1 14 -9 26 -17 28
-10 3 -11 2 -4 -4z"/>
<path d="M3147 1743 c5 -13 2 -15 -15 -11 -15 4 -19 2 -15 -8 7 -19 29 -18 37
2 9 23 7 34 -4 34 -5 0 -7 -7 -3 -17z"/>
<path d="M1992 1730 c0 -14 2 -19 5 -12 2 6 2 18 0 25 -3 6 -5 1 -5 -13z"/>
<path d="M3087 1734 c-3 -5 1 -15 9 -22 16 -14 18 -5 5 17 -5 7 -11 9 -14 5z"/>
<path d="M2031 1714 c0 -11 3 -14 6 -6 3 7 2 16 -1 19 -3 4 -6 -2 -5 -13z"/>
<path d="M2865 1719 c-4 -6 -5 -12 -2 -15 2 -3 7 2 10 11 7 17 1 20 -8 4z"/>
<path d="M2987 1705 c4 -17 1 -25 -7 -23 -7 2 -15 -4 -17 -12 -4 -12 -3 -12 5
-2 5 8 13 13 18 11 13 -4 18 31 6 43 -6 6 -8 0 -5 -17z"/>
<path d="M1900 1701 c0 -5 5 -13 10 -16 6 -4 8 -11 5 -16 -4 -5 1 -9 9 -9 12
0 13 5 7 22 -8 23 -31 37 -31 19z"/>
<path d="M2108 1693 c39 -8 23 -38 -18 -37 -33 2 -33 1 -12 -9 29 -13 57 1 57
29 0 13 -8 20 -25 21 -23 1 -23 1 -2 -4z"/>
<path d="M2870 1686 c0 -2 8 -10 18 -17 15 -13 16 -12 3 4 -13 16 -21 21 -21
13z"/>
<path d="M2843 1649 c9 -6 15 -14 12 -19 -3 -5 -1 -11 4 -14 5 -4 8 0 7 6 -3
21 -16 38 -29 38 -7 0 -4 -5 6 -11z"/>
<path d="M2455 1639 c-11 -16 -1 -19 13 -3 7 8 8 14 3 14 -5 0 -13 -5 -16 -11z"/>
<path d="M2552 1596 c7 -8 15 -12 17 -11 5 6 -10 25 -20 25 -5 0 -4 -6 3 -14z"/>
<path d="M2195 1590 c-3 -6 1 -7 9 -4 18 7 21 14 7 14 -6 0 -13 -4 -16 -10z"/>
<path d="M2411 1580 c14 -31 19 -36 19 -24 0 6 -7 19 -16 30 -14 18 -14 18 -3
-6z"/>
<path d="M2213 1556 c3 -23 33 -30 42 -9 3 9 3 18 0 21 -3 3 -5 0 -5 -6 0 -16
-27 -15 -34 1 -3 6 -5 3 -3 -7z"/>
<path d="M2716 1534 c-3 -8 -10 -12 -16 -9 -5 3 -10 1 -10 -4 0 -16 16 -13 34
5 18 18 20 24 7 24 -5 0 -12 -7 -15 -16z"/>
<path d="M2346 1511 c5 -5 20 -11 34 -14 14 -2 19 -2 13 0 -7 3 -13 9 -13 14
0 5 -10 9 -22 9 -14 0 -18 -4 -12 -9z"/>
<path d="M1732 3423 c3 -25 -1 -29 -32 -34 -35 -6 -35 -6 -4 -8 16 0 39 6 50
14 12 9 14 14 5 15 -8 0 -11 7 -8 20 3 11 1 20 -5 20 -5 0 -8 -12 -6 -27z"/>
<path d="M1652 3408 c-27 -27 3 -69 35 -48 13 8 14 10 2 7 -22 -7 -43 8 -36
26 3 9 16 17 29 20 20 4 20 4 3 6 -12 0 -26 -4 -33 -11z"/>
<path d="M1735 3337 c-11 -8 -14 -16 -8 -20 6 -4 18 2 28 13 21 23 8 27 -20 7z"/>
<path d="M1656 3304 c-7 -19 10 -54 28 -54 14 0 46 31 46 45 0 5 -9 -1 -21
-14 -17 -18 -24 -20 -35 -10 -8 7 -12 20 -9 30 8 23 0 25 -9 3z"/>
<path d="M1595 3232 c-16 -29 -27 -38 -55 -42 -35 -6 -35 -6 -8 -13 15 -4 34
-20 42 -35 9 -15 15 -21 16 -13 0 8 -7 23 -17 33 -15 17 -15 18 6 18 13 0 19
4 16 10 -4 6 1 22 10 36 9 14 15 29 13 35 -2 5 -12 -8 -23 -29z"/>
<path d="M1500 3252 c0 -6 -5 -23 -12 -39 -15 -38 -18 -53 -9 -53 4 0 14 -12
21 -27 8 -17 14 -23 17 -15 3 7 -1 21 -9 30 -16 19 -16 32 -4 75 5 15 6 31 2
34 -3 4 -6 1 -6 -5z"/>
<path d="M1431 3250 c0 -3 -5 -21 -11 -40 -9 -31 -8 -33 6 -18 9 9 14 26 11
39 -2 13 -5 22 -6 19z"/>
<path d="M3487 3244 c-3 -4 -21 -10 -39 -14 -30 -7 -29 -8 14 -7 37 1 52 -4
68 -21 11 -12 25 -22 29 -22 5 0 -6 16 -25 35 -35 37 -37 39 -47 29z"/>
<path d="M3482 3190 c-6 -11 -26 -24 -44 -30 l-33 -10 33 4 c27 2 33 0 29 -13
-3 -11 2 -17 14 -17 13 0 15 4 9 15 -4 8 -4 26 1 39 12 31 7 37 -9 12z"/>
<path d="M3512 3094 c10 -10 20 -16 22 -13 3 3 -5 11 -17 18 -21 13 -21 12 -5
-5z"/>
<path d="M3507 3033 c-14 -13 -6 -42 18 -71 14 -17 25 -34 25 -40 0 -5 8 -16
18 -23 14 -11 15 -11 5 1 -7 8 -13 20 -13 27 0 6 -11 23 -25 37 -41 42 -25 86
18 49 l22 -18 -19 23 c-19 22 -37 28 -49 15z"/>
<path d="M3603 2995 c-3 -9 -3 -19 1 -22 3 -4 6 2 6 11 0 14 6 17 25 14 13 -3
22 -1 19 3 -9 15 -44 10 -51 -6z"/>
<path d="M3616 2964 c-3 -9 -6 -34 -6 -55 0 -24 -4 -38 -10 -34 -5 3 -10 4
-10 1 0 -3 8 -10 19 -15 15 -9 17 -7 14 13 -3 13 0 27 7 31 17 11 27 -5 10
-16 -13 -9 -13 -10 0 -6 22 5 18 32 -4 30 -15 -1 -17 4 -13 33 6 36 3 44 -7
18z"/>
<path d="M1440 2983 c0 -4 5 -15 10 -23 8 -13 10 -13 10 2 0 9 -4 20 -10 23
-5 3 -10 3 -10 -2z"/>
<path d="M1398 2973 c7 -3 16 -2 19 1 4 3 -2 6 -13 5 -11 0 -14 -3 -6 -6z"/>
<path d="M1390 2948 c0 -5 5 -6 10 -3 16 10 12 -7 -7 -27 -9 -10 -12 -18 -6
-18 5 0 19 13 30 29 l22 29 -25 0 c-13 0 -24 -5 -24 -10z"/>
<path d="M1461 2919 c-1 -9 -11 -28 -22 -43 -12 -15 -20 -29 -17 -31 7 -8 50
65 45 77 -4 9 -6 8 -6 -3z"/>
<path d="M1330 2894 c0 -6 7 -17 16 -24 12 -11 18 -10 31 3 15 15 14 16 -6 10
-14 -4 -26 -1 -32 8 -5 8 -9 9 -9 3z"/>
<path d="M1441 2828 c-1 -32 -17 -44 -37 -27 -12 10 -13 9 -8 -5 10 -25 43
-20 50 9 3 13 4 30 1 37 -3 7 -6 1 -6 -14z"/>
<path d="M1364 2735 c4 -34 11 -40 14 -10 1 13 -2 27 -7 30 -6 3 -8 -6 -7 -20z"/>
<path d="M1270 2700 c0 -8 5 -22 10 -30 9 -13 10 -13 10 0 0 8 -5 22 -10 30
-9 13 -10 13 -10 0z"/>
<path d="M1348 2668 c-17 -17 -17 -18 0 -18 10 0 29 -7 42 -16 20 -12 19 -10
-4 9 -19 17 -24 26 -15 29 7 2 9 7 4 10 -6 2 -18 -3 -27 -14z"/>
<path d="M1210 2653 c0 -4 5 -15 10 -23 8 -13 10 -13 10 2 0 9 -4 20 -10 23
-5 3 -10 3 -10 -2z"/>
<path d="M1288 2632 c-10 -2 -18 -9 -18 -17 0 -18 -27 -39 -32 -25 -2 6 -8 -7
-14 -29 -11 -39 -10 -41 10 -40 12 0 15 3 9 6 -20 7 -15 27 10 51 27 26 59 28
81 6 9 -8 16 -11 16 -5 0 5 -8 16 -18 23 -11 7 -21 18 -23 23 -2 6 -12 9 -21
7z"/>
<path d="M3665 2634 c-22 -19 -32 -32 -22 -28 13 5 17 1 17 -17 0 -13 5 -31
10 -39 7 -11 8 -2 4 28 -6 36 -3 47 16 67 33 36 22 30 -25 -11z"/>
<path d="M3620 2650 c8 -5 20 -10 25 -10 6 0 3 5 -5 10 -8 5 -19 10 -25 10 -5
0 -3 -5 5 -10z"/>
<path d="M3737 2640 c3 -11 9 -20 13 -20 5 0 6 9 3 20 -3 11 -9 20 -13 20 -5
0 -6 -9 -3 -20z"/>
<path d="M3620 2495 c-12 -15 -10 -48 6 -89 5 -13 4 -17 -4 -12 -8 5 -10 1 -5
-11 6 -14 9 -11 20 16 8 18 12 36 9 39 -4 3 -6 -1 -6 -9 0 -24 -20 13 -20 38
0 45 49 35 51 -11 1 -18 2 -18 6 -3 4 17 -22 57 -37 57 -4 0 -13 -7 -20 -15z"/>
<path d="M3700 2423 c-12 -15 -12 -16 0 -5 20 17 29 15 40 -10 10 -23 10 -23
7 2 -3 30 -29 37 -47 13z"/>
<path d="M3690 2390 c-8 -5 -12 -12 -9 -15 4 -3 12 1 19 10 14 17 11 19 -10 5z"/>
<path d="M3665 2350 c-4 -6 1 -18 11 -25 27 -20 36 -18 32 7 -3 25 -32 36 -43
18z m35 -20 c0 -5 -2 -10 -4 -10 -3 0 -8 5 -11 10 -3 6 -1 10 4 10 6 0 11 -4
11 -10z"/>
<path d="M3630 2344 c0 -6 7 -19 15 -30 8 -10 14 -14 14 -9 0 6 -6 19 -14 29
-8 11 -15 15 -15 10z"/>
<path d="M1350 2433 c0 -5 10 -18 23 -29 l22 -19 -20 25 c-11 14 -21 27 -22
29 -2 2 -3 0 -3 -6z"/>
<path d="M1301 2403 c-1 -11 28 -33 43 -33 3 0 6 10 5 23 0 12 -3 16 -6 10 -2
-7 -11 -13 -18 -13 -7 0 -16 6 -18 13 -4 9 -6 9 -6 0z"/>
<path d="M1390 2364 c0 -8 5 -12 10 -9 6 4 8 11 5 16 -9 14 -15 11 -15 -7z"/>
<path d="M1325 2340 c-3 -5 -1 -10 4 -10 6 0 11 5 11 10 0 6 -2 10 -4 10 -3 0
-8 -4 -11 -10z"/>
<path d="M1310 2300 c-19 -4 -21 -7 -9 -12 9 -3 22 -2 30 2 19 13 8 18 -21 10z"/>
<path d="M1420 2275 c0 -26 -17 -33 -38 -15 -7 5 -6 3 2 -6 20 -23 46 -10 46
21 0 14 -2 25 -5 25 -3 0 -5 -11 -5 -25z"/>
<path d="M1390 2182 c6 -13 14 -21 18 -18 3 4 -2 14 -12 24 -18 16 -18 16 -6
-6z"/>
<path d="M1425 2132 c-5 -4 -15 -17 -22 -28 -10 -19 -10 -21 7 -17 11 3 17 9
14 15 -3 5 0 15 6 23 13 16 11 19 -5 7z"/>
<path d="M1337 2085 c11 -16 23 -38 26 -48 5 -14 11 -16 26 -7 11 5 28 7 38 4
17 -5 17 -5 0 6 -9 6 -22 8 -27 5 -6 -3 -10 -1 -10 4 0 6 -4 10 -8 9 -5 -2
-21 11 -36 27 l-28 30 19 -30z"/>
<path d="M1448 2103 c7 -3 16 -2 19 1 4 3 -2 6 -13 5 -11 0 -14 -3 -6 -6z"/>
<path d="M1305 2020 c10 -11 20 -18 23 -15 7 6 -18 35 -31 35 -5 0 -2 -9 8
-20z"/>
<path d="M3620 2161 c0 -5 10 -21 22 -36 15 -20 22 -41 21 -69 l-2 -41 9 43
c5 23 12 47 15 52 3 6 1 10 -5 10 -6 0 -22 11 -35 25 -14 13 -25 20 -25 16z"/>
<path d="M3566 2112 c19 -16 19 -21 8 -52 -7 -19 -12 -46 -12 -60 0 -15 4 -8
11 20 10 36 19 49 47 63 19 10 26 15 14 12 -13 -3 -31 3 -47 15 -31 24 -50 26
-21 2z"/>
<path d="M3481 1976 c-9 -11 -6 -12 14 -8 14 2 22 8 19 13 -8 13 -20 11 -33
-5z"/>
<path d="M3441 1891 c-7 -5 -12 -14 -10 -20 3 -7 11 -3 21 9 18 21 13 26 -11
11z"/>
<path d="M3514 1879 c-4 -7 0 -9 14 -5 13 5 22 1 26 -10 4 -9 9 -14 13 -11 8
9 -17 37 -33 37 -7 0 -16 -5 -20 -11z"/>
<path d="M3490 1851 c0 -5 -9 -13 -20 -16 -24 -8 -25 -15 -5 -41 12 -16 16
-17 24 -4 6 9 6 19 0 26 -10 12 2 26 31 37 10 4 7 6 -7 6 -13 1 -23 -3 -23 -8z
m-12 -56 c-3 -3 -9 2 -12 12 -6 14 -5 15 5 6 7 -7 10 -15 7 -18z"/>
<path d="M3513 1823 c9 -2 23 -2 30 0 6 3 -1 5 -18 5 -16 0 -22 -2 -12 -5z"/>
<path d="M1514 1894 c9 -8 16 -19 16 -24 0 -13 -28 -20 -34 -7 -2 7 -5 4 -5
-7 -1 -13 4 -16 15 -12 9 3 20 6 26 6 6 0 8 9 5 20 -3 11 0 20 6 20 16 0 -15
20 -31 20 -10 0 -9 -4 2 -16z"/>
<path d="M1579 1866 c29 -31 35 -33 22 -7 -6 10 -18 22 -28 25 -13 5 -11 1 6
-18z"/>
<path d="M1541 1814 c0 -11 3 -14 6 -6 3 7 2 16 -1 19 -3 4 -6 -2 -5 -13z"/>
<path d="M1641 1815 c10 -11 19 -29 22 -40 4 -19 5 -19 6 1 0 11 -9 29 -21 40
-23 19 -23 19 -7 -1z"/>
<path d="M1561 1788 c0 -9 -9 -22 -18 -27 -10 -6 -13 -10 -8 -11 21 0 37 18
32 36 -4 16 -5 16 -6 2z"/>
<path d="M1688 1684 c28 -22 32 -32 32 -71 l0 -45 -25 16 c-37 24 -40 19 -7
-9 28 -24 62 -26 62 -4 0 5 6 9 14 9 8 0 18 5 22 12 5 8 2 9 -9 5 -10 -4 -24
-10 -32 -13 -11 -5 -15 1 -15 20 0 19 9 32 33 46 35 22 33 25 -7 10 -21 -8
-26 -6 -26 6 0 8 -4 13 -9 10 -4 -3 -16 3 -26 14 -10 11 -23 20 -29 20 -6 0 4
-12 22 -26z"/>
<path d="M1661 1526 c2 -2 15 -9 29 -15 24 -11 24 -11 6 3 -16 13 -49 24 -35
12z"/>
<path d="M1731 1514 c0 -11 3 -14 6 -6 3 7 2 16 -1 19 -3 4 -6 -2 -5 -13z"/>
<path d="M1736 1483 c6 -4 15 -16 21 -27 10 -17 10 -17 16 3 3 11 1 21 -3 21
-5 0 -17 3 -27 6 -11 3 -14 2 -7 -3z"/>
<path d="M3336 1656 c5 -37 4 -38 -20 -34 -14 3 -23 1 -20 -3 3 -5 14 -9 25
-9 10 0 19 -4 19 -10 0 -5 -4 -10 -8 -10 -5 0 -14 -11 -20 -25 -18 -40 -14
-41 11 -4 12 18 33 39 45 45 22 11 22 12 3 17 -12 3 -24 19 -30 38 l-11 34 6
-39z"/>
<path d="M3266 1653 c3 -14 1 -23 -6 -23 -11 0 -59 -49 -60 -62 0 -3 12 6 28
21 15 15 34 30 42 33 12 4 13 9 2 29 -11 22 -12 22 -6 2z"/>
<path d="M3394 1575 c-9 -13 -14 -28 -12 -33 1 -5 10 6 19 24 19 40 16 44 -7
9z"/>
<path d="M3133 1579 c12 -7 16 -17 12 -32 -5 -20 -5 -20 5 -4 12 20 -2 47 -24
47 -6 0 -3 -5 7 -11z"/>
<path d="M3060 1537 c-25 -23 -38 -36 -30 -29 9 6 21 12 26 13 5 0 19 13 32
30 31 39 26 36 -28 -14z"/>
<path d="M3100 1540 c-9 -6 -10 -10 -3 -10 6 0 15 5 18 10 8 12 4 12 -15 0z"/>
<path d="M3124 1471 c21 -23 26 -26 26 -11 0 5 -10 15 -22 21 -23 12 -23 12
-4 -10z"/>
<path d="M1951 1511 c26 -4 55 -13 64 -21 17 -14 17 -14 4 8 -12 18 -22 22
-64 21 l-50 -2 46 -6z"/>
<path d="M2073 1484 c33 -18 31 -35 -4 -46 l-24 -7 24 2 c13 1 29 10 35 20 9
15 7 21 -8 33 -11 8 -27 14 -35 14 -9 -1 -4 -7 12 -16z"/>
<path d="M1928 1468 c-14 -14 -15 -18 -4 -18 8 0 16 5 18 12 3 7 13 2 26 -12
12 -13 22 -19 22 -14 0 6 -10 20 -22 31 -22 19 -23 19 -40 1z"/>
<path d="M1951 1424 c0 -11 3 -14 6 -6 3 7 2 16 -1 19 -3 4 -6 -2 -5 -13z"/>
<path d="M2006 1404 c-4 -10 -13 -14 -26 -11 -11 3 -18 1 -14 -4 3 -5 11 -9
18 -9 15 0 41 28 34 36 -3 3 -8 -3 -12 -12z"/>
<path d="M2201 1412 c-1 -9 -12 -11 -38 -8 l-38 6 35 -11 c19 -5 43 -19 53
-31 l17 -20 0 20 c0 12 5 24 10 27 6 3 10 12 10 18 0 7 -7 4 -14 -5 -7 -10
-16 -18 -19 -18 -3 0 -8 8 -10 18 -3 9 -5 11 -6 4z"/>
<path d="M2270 1345 c-7 -9 -19 -14 -27 -11 -9 4 -11 1 -7 -5 4 -6 2 -14 -4
-18 -7 -4 0 -11 17 -18 26 -9 28 -8 23 9 -2 10 4 28 13 38 10 11 13 20 8 20
-6 0 -16 -7 -23 -15z"/>
<path d="M2168 1303 c6 -2 18 -2 25 0 6 3 1 5 -13 5 -14 0 -19 -2 -12 -5z"/>
<path d="M2285 1261 c3 -6 -14 -12 -37 -14 l-43 -4 48 -1 c36 -2 47 2 47 13 0
8 -5 15 -11 15 -5 0 -8 -4 -4 -9z"/>
<path d="M2360 1206 c0 -2 7 -7 16 -10 8 -3 12 -2 9 4 -6 10 -25 14 -25 6z"/>
<path d="M2780 1396 c0 -19 7 -39 17 -47 15 -13 15 -12 4 10 -7 13 -11 34 -8
47 2 13 0 24 -4 24 -5 0 -9 -15 -9 -34z"/>
<path d="M2590 1406 c0 -2 11 -6 25 -8 13 -3 22 -1 19 3 -5 9 -44 13 -44 5z"/>
<path d="M2837 1366 c-14 -30 -14 -36 -1 -46 11 -10 14 -8 12 11 -1 13 2 34 6
47 11 33 2 27 -17 -12z"/>
<path d="M2493 1382 c-6 -4 6 -8 29 -8 26 -1 35 2 27 7 -17 11 -40 11 -56 1z"/>
<path d="M2750 1380 c0 -5 5 -10 10 -10 6 0 10 5 10 10 0 6 -4 10 -10 10 -5 0
-10 -4 -10 -10z"/>
<path d="M2689 1353 c-13 -16 -12 -17 4 -4 16 13 21 21 13 21 -2 0 -10 -8 -17
-17z"/>
<path d="M2481 1334 c1 -5 1 -16 0 -24 -1 -13 -2 -13 -11 0 -8 13 -10 12 -10
-2 0 -22 13 -23 30 -3 14 17 50 20 50 5 0 -5 4 -10 8 -10 5 0 9 7 9 15 0 8 -7
15 -16 15 -9 0 -26 3 -39 6 -13 4 -22 3 -21 -2z"/>
<path d="M2574 1294 c-1 -13 2 -21 7 -18 11 6 12 31 2 37 -5 3 -9 -6 -9 -19z"/>
<path d="M2794 1310 c-12 -5 -25 -14 -29 -20 -4 -7 7 -4 24 4 17 9 31 19 31
21 0 6 1 6 -26 -5z"/>
</g>
</svg>
